<svg xmlns="http://www.w3.org/2000/svg" viewBox="0 0 500 500" width="500" height="500">
  <!-- Background -->
  <rect x="0" y="0" width="500" height="500" fill="#f8fafc" rx="20" ry="20"/>
  
  <!-- QR Code Frame -->
  <rect x="100" y="100" width="300" height="300" fill="#ffffff" stroke="#3b82f6" stroke-width="8" rx="15" ry="15"/>
  
  <!-- QR Code Pattern (simplified) -->
  <!-- Position Detection Pattern - Top Left -->
  <rect x="130" y="130" width="60" height="60" fill="#000000"/>
  <rect x="140" y="140" width="40" height="40" fill="#ffffff"/>
  <rect x="150" y="150" width="20" height="20" fill="#000000"/>
  
  <!-- Position Detection Pattern - Top Right -->
  <rect x="310" y="130" width="60" height="60" fill="#000000"/>
  <rect x="320" y="140" width="40" height="40" fill="#ffffff"/>
  <rect x="330" y="150" width="20" height="20" fill="#000000"/>
  
  <!-- Position Detection Pattern - Bottom Left -->
  <rect x="130" y="310" width="60" height="60" fill="#000000"/>
  <rect x="140" y="320" width="40" height="40" fill="#ffffff"/>
  <rect x="150" y="330" width="20" height="20" fill="#000000"/>
  
  <!-- QR Code Data (simplified pattern) -->
  <rect x="220" y="130" width="20" height="20" fill="#000000"/>
  <rect x="250" y="130" width="20" height="20" fill="#000000"/>
  <rect x="280" y="130" width="20" height="20" fill="#000000"/>
  
  <rect x="130" y="190" width="20" height="20" fill="#000000"/>
  <rect x="160" y="190" width="20" height="20" fill="#000000"/>
  <rect x="190" y="190" width="20" height="20" fill="#000000"/>
  <rect x="250" y="190" width="20" height="20" fill="#000000"/>
  <rect x="280" y="190" width="20" height="20" fill="#000000"/>
  <rect x="310" y="190" width="20" height="20" fill="#000000"/>
  
  <rect x="160" y="220" width="20" height="20" fill="#000000"/>
  <rect x="220" y="220" width="20" height="20" fill="#000000"/>
  <rect x="250" y="220" width="20" height="20" fill="#000000"/>
  <rect x="310" y="220" width="20" height="20" fill="#000000"/>
  
  <rect x="190" y="250" width="20" height="20" fill="#000000"/>
  <rect x="220" y="250" width="20" height="20" fill="#000000"/>
  <rect x="280" y="250" width="20" height="20" fill="#000000"/>
  <rect x="340" y="250" width="20" height="20" fill="#000000"/>
  
  <rect x="130" y="280" width="20" height="20" fill="#000000"/>
  <rect x="190" y="280" width="20" height="20" fill="#000000"/>
  <rect x="220" y="280" width="20" height="20" fill="#000000"/>
  <rect x="250" y="280" width="20" height="20" fill="#000000"/>
  <rect x="280" y="280" width="20" height="20" fill="#000000"/>
  
  <rect x="220" y="310" width="20" height="20" fill="#000000"/>
  <rect x="250" y="310" width="20" height="20" fill="#000000"/>
  <rect x="280" y="310" width="20" height="20" fill="#000000"/>
  <rect x="310" y="310" width="20" height="20" fill="#000000"/>
  <rect x="340" y="310" width="20" height="20" fill="#000000"/>
  
  <!-- Logo in center -->
  <circle cx="250" cy="250" r="40" fill="#3b82f6"/>
  <text x="250" y="265" font-family="Arial" font-size="40" font-weight="bold" fill="#ffffff" text-anchor="middle">QR</text>
  
  <!-- Decorative Elements -->
  <circle cx="70" cy="150" r="15" fill="#3b82f6" opacity="0.7"/>
  <circle cx="50" cy="350" r="25" fill="#3b82f6" opacity="0.5"/>
  <circle cx="430" cy="120" r="20" fill="#3b82f6" opacity="0.6"/>
  <circle cx="450" cy="380" r="30" fill="#3b82f6" opacity="0.4"/>
</svg> 